<svg width="24" height="24" viewBox="0 0 24 24" fill="none" xmlns="http://www.w3.org/2000/svg">
<path d="M16 3C18.8284 3 20.2424 3.00023 21.1211 3.87891C21.9998 4.75759 22 6.17157 22 9V15C22 17.8284 21.9998 19.2424 21.1211 20.1211C20.2424 20.9998 18.8284 21 16 21H8C5.17157 21 3.75759 20.9998 2.87891 20.1211C2.00023 19.2424 2 17.8284 2 15V9C2 6.17157 2.00023 4.75759 2.87891 3.87891C3.75759 3.00023 5.17157 3 8 3H16ZM8 10C7.44772 10 7 10.4477 7 11V17C7 17.5523 7.44772 18 8 18C8.55228 18 9 17.5523 9 17V11C9 10.4477 8.55228 10 8 10ZM12 12C11.4477 12 11 12.4477 11 13V17C11 17.5523 11.4477 18 12 18C12.5523 18 13 17.5523 13 17V13C13 12.4477 12.5523 12 12 12ZM16 8C15.4477 8 15 8.44772 15 9V17C15 17.5523 15.4477 18 16 18C16.5523 18 17 17.5523 17 17V9C17 8.44772 16.5523 8 16 8Z" fill="black"/>
</svg>
