<svg width="14" height="14" viewBox="0 0 14 14" fill="none" xmlns="http://www.w3.org/2000/svg">
<path d="M4.6665 4.6669L4.6665 4.08357C4.6665 2.7949 5.71117 1.75023 6.99984 1.75023V1.75023C8.2885 1.75023 9.33317 2.7949 9.33317 4.08357L9.33317 4.6669" stroke="#656565" stroke-width="2" stroke-linecap="round"/>
<path d="M9.33301 4.08325C10.1865 4.08325 10.6136 4.08405 10.9541 4.21216C11.4931 4.41503 11.9192 4.84012 12.1221 5.37915C12.2502 5.71971 12.25 6.14665 12.25 7.00024V7.58325C12.25 8.74549 12.2498 9.32734 12.1299 9.80591C11.7711 11.2374 10.6532 12.3555 9.22168 12.7141C8.74317 12.8339 8.16197 12.8333 7 12.8333C5.83803 12.8333 5.25683 12.8339 4.77832 12.7141C3.34677 12.3555 2.22886 11.2374 1.87012 9.80591C1.75024 9.32734 1.75 8.74549 1.75 7.58325V7.00024C1.75 6.14665 1.7498 5.71971 1.87793 5.37915C2.08081 4.84012 2.50687 4.41503 3.0459 4.21216C3.38645 4.08405 3.81346 4.08325 4.66699 4.08325H9.33301ZM5.25 6.00024C4.69772 6.00024 4.25 6.44796 4.25 7.00024V8.16724C4.25018 8.71937 4.69782 9.16724 5.25 9.16724C5.80218 9.16724 6.24982 8.71937 6.25 8.16724V7.00024C6.25 6.44796 5.80228 6.00024 5.25 6.00024ZM8.75 6.00024C8.19772 6.00024 7.75 6.44796 7.75 7.00024V8.16724C7.75018 8.71937 8.19782 9.16724 8.75 9.16724C9.30218 9.16724 9.74982 8.71937 9.75 8.16724V7.00024C9.75 6.44796 9.30228 6.00024 8.75 6.00024Z" fill="#656565"/>
</svg>
