<svg width="54" height="54" viewBox="0 0 54 54" fill="none" xmlns="http://www.w3.org/2000/svg">
<path fill-rule="evenodd" clip-rule="evenodd" d="M45.015 22.2701C46.1116 22.1375 47.1081 22.9189 47.2407 24.0155L47.4397 25.6612L47.4974 27.4051L47.4028 29.1475L47.1568 30.875L46.7612 32.5745L46.2189 34.2331L45.5341 35.838L44.7121 37.3772L43.759 38.8389L42.7361 40.1433C42.0545 41.0124 40.7973 41.1644 39.9281 40.4828C39.059 39.8012 38.907 38.544 39.5886 37.6748L40.5038 36.5079L41.266 35.3388L41.9235 34.1077L42.4712 32.824L42.9049 31.4975L43.2214 30.1382L43.4182 28.7564L43.4938 27.3628L43.4476 25.968L43.2696 24.4957C43.137 23.3991 43.9185 22.4027 45.015 22.2701Z" fill="#6750A4"/>
<path fill-rule="evenodd" clip-rule="evenodd" d="M43.5507 18.6256C42.6673 19.2887 41.4136 19.1102 40.7505 18.2268L39.8602 17.0408L38.9282 16.0019L37.9093 15.0482L36.8111 14.187L35.642 13.4247L34.4109 12.7672L33.1272 12.2195L31.8006 11.7858L30.4413 11.4693L29.0596 11.2726L27.666 11.197L26.2711 11.2431L24.8856 11.4106L23.5199 11.6983L22.1845 12.1039L20.8895 12.6243L19.6448 13.2557L18.4598 13.9931L17.3437 14.831L16.3048 15.7629L15.3511 16.7819L14.4898 17.8801L13.7275 19.0492L13.07 20.2803L12.5224 21.564L12.0886 22.8905L11.7722 24.2498L11.5754 25.6315L11.4998 27.0252L11.5459 28.42L11.7135 29.8056L12.0012 31.1713L12.4067 32.5067L12.9272 33.8017L13.5585 35.0464L14.2959 36.2313L15.1338 37.3475L16.0658 38.3864L17.0847 39.3401L18.1829 40.2014L19.352 40.9636L20.5831 41.6211L21.8668 42.1688L23.1934 42.6025L24.5527 42.919L25.9344 43.1158L27.328 43.1914L28.7229 43.1452L30.1085 42.9777L31.4741 42.69L32.8095 42.2844L34.1856 41.7314C35.2105 41.3195 36.3752 41.8164 36.7871 42.8413C37.199 43.8662 36.7021 45.031 35.6772 45.4429L34.1391 46.061L32.4695 46.5681L30.762 46.9278L29.0297 47.1373L27.2857 47.1949L25.5433 47.1004L23.8158 46.8544L22.1163 46.4587L20.4578 45.9165L18.8528 45.2317L17.3136 44.4097L15.8519 43.4566L14.4789 42.3798L13.2049 41.1874L12.0397 39.8885L10.9921 38.493L10.0702 37.0116L9.28083 35.4553L8.63014 33.8363L8.12304 32.1666L7.76338 30.4592L7.55391 28.7268L7.49621 26.9828L7.59074 25.2405L7.83677 23.513L8.23242 21.8135L8.77468 20.1549L9.45944 18.5499L10.2815 17.0108L11.2345 15.5491L12.3113 14.176L13.5037 12.902L14.8026 11.7368L16.1981 10.6893L17.6796 9.76731L19.2358 8.97798L20.8549 8.32729L22.5245 7.82019L24.232 7.46053L25.9643 7.25106L27.7083 7.19337L29.4507 7.2879L31.1782 7.53392L32.8777 7.92957L34.5362 8.47184L36.1412 9.15659L37.6804 9.97862L39.1421 10.9317L40.5151 12.0085L41.7891 13.2009L42.9543 14.4998L43.9495 15.8254C44.6126 16.7088 44.434 17.9625 43.5507 18.6256Z" fill="#E8DEF8"/>
<g clip-path="url(#clip0_268_1300)">
<path d="M28.6414 18.7721H21.9748C21.5327 18.7721 21.1088 18.9477 20.7963 19.2603C20.4837 19.5728 20.3081 19.9967 20.3081 20.4388V33.7721C20.3081 34.2141 20.4837 34.638 20.7963 34.9506C21.1088 35.2632 21.5327 35.4388 21.9748 35.4388H31.9748C32.4168 35.4388 32.8407 35.2632 33.1533 34.9506C33.4658 34.638 33.6414 34.2141 33.6414 33.7721V23.7721M28.6414 18.7721L33.6414 23.7721M28.6414 18.7721L28.6414 23.7721H33.6414M30.3081 27.9388H23.6414M30.3081 31.2721H23.6414M25.3081 24.6054H23.6414" stroke="#880A9F" stroke-width="2" stroke-linecap="round" stroke-linejoin="round"/>
</g>
<defs>
<clipPath id="clip0_268_1300">
<rect width="20" height="20" fill="white" transform="translate(16.9746 17.1055)"/>
</clipPath>
</defs>
</svg>
