<?xml version="1.0" ?>
<!-- Uploaded to: SVG Repo, www.svgrepo.com, Generator: SVG Repo Mixer Tools -->
<svg fill="#000000" width="800px" height="800px" viewBox="0 0 32 32" xmlns="http://www.w3.org/2000/svg">
<title/>
<g data-name="01" id="_01">
<path d="M25.8,27V5a1,1,0,0,0-1-1H7.2a1,1,0,0,0-1,1V27a1,1,0,0,0,1,1H24.8A1,1,0,0,0,25.8,27Zm-2-1H8.2V17H23.8Zm0-11H8.2V6H23.8ZM11,22V20a1,1,0,0,1,2,0v1h6V20a1,1,0,0,1,2,0v2a1,1,0,0,1-1,1H12A1,1,0,0,1,11,22Zm0-11V9a1,1,0,0,1,2,0v1h6V9a1,1,0,0,1,2,0v2a1,1,0,0,1-1,1H12A1,1,0,0,1,11,11Z"/>
</g>
</svg>